# Blender 4.3.2
# www.blender.org
mtllib testcube.mtl
o Cube
v 1.000000 1.000000 -1.000000
v 1.000000 -1.000000 -1.000000
v 1.000000 1.000000 1.000000
v 1.000000 -1.000000 1.000000
v -1.000000 1.000000 -1.000000
v -1.000000 -1.000000 -1.000000
v -1.000000 1.000000 1.000000
v -1.000000 -1.000000 1.000000
v 1.000000 1.000000 1.000000
v -1.000000 1.000000 1.000000
v 1.000000 1.000000 -1.000000
v -1.000000 1.000000 -1.000000
v -1.000000 -1.000000 1.000000
v -1.000000 1.000000 1.000000
v 1.000000 1.000000 1.000000
v 1.000000 -1.000000 1.000000
v 1.000000 1.000000 -1.000000
v 1.000000 -1.000000 -1.000000
v 1.000000 -1.000000 1.000000
v -1.000000 -1.000000 -1.000000
v -1.000000 -1.000000 1.000000
v -1.000000 1.000000 -1.000000
v 1.000000 -1.000000 -1.000000
v -1.000000 -1.000000 -1.000000
vn -0.0000 1.0000 -0.0000
vn -0.0000 -0.0000 1.0000
vn -1.0000 -0.0000 -0.0000
vn -0.0000 -1.0000 -0.0000
vn 1.0000 -0.0000 -0.0000
vn -0.0000 -0.0000 -1.0000
vt 1.000000 0.000000
vt 0.000000 1.000000
vt 0.000000 0.000000
vt 0.997270 -0.000231
vt -0.002730 0.999769
vt -0.002730 -0.000231
vt 1.000000 1.000000
vt 0.997270 0.999769
s 0
g Cube_testcube_mat
usemtl testcube_mat
f 5/1/1 3/2/1 1/3/1
f 9/1/2 8/2/2 16/3/2
f 14/1/3 20/2/3 13/3/3
f 23/1/4 21/2/4 24/3/4
f 11/4/5 4/5/5 2/6/5
f 22/1/6 18/2/6 6/3/6
f 5/1/1 7/7/1 3/2/1
f 9/1/2 10/7/2 8/2/2
f 14/1/3 12/7/3 20/2/3
f 23/1/4 19/7/4 21/2/4
f 11/4/5 15/8/5 4/5/5
f 22/1/6 17/7/6 18/2/6
